<svg width="26" height="22" viewBox="0 0 26 22" fill="none" xmlns="http://www.w3.org/2000/svg">
<g clip-path="url(#clip0_248_599)">
<path d="M1.26793 13.5472C1.53836 13.5472 1.80609 13.4247 1.98278 13.1906L2.3749 12.674C2.96174 16.2052 5.40014 19.2262 8.86168 20.445C9.92719 20.8199 11.0206 21 12.0997 21C15.3304 21 18.4395 19.3835 20.301 16.5371C20.5759 16.1165 20.4623 15.5487 20.0477 15.2698C19.6312 14.9891 19.0741 15.1062 18.7974 15.5268C16.77 18.63 12.9272 19.943 9.45393 18.7178C6.57202 17.7029 4.5618 15.1583 4.13272 12.2031L4.90435 12.8057C5.30008 13.112 5.86529 13.0388 6.16817 12.6383C6.47196 12.2378 6.39894 11.6645 6.00411 11.3564C6.00411 11.3564 3.8722 9.69139 3.86679 9.68773C3.41877 9.33754 2.78145 9.14095 2.3758 9.67767L0.554891 12.076C0.251105 12.4765 0.324122 13.0498 0.718954 13.3579C0.882115 13.485 1.07593 13.5472 1.26793 13.5472Z" fill="#363232"/>
<path d="M4.12552 6.7307C4.53928 7.00958 5.09908 6.89437 5.37582 6.47377C7.40316 3.37139 11.2496 2.05839 14.7193 3.2827C17.6012 4.29762 19.6114 6.84225 20.0405 9.79742L19.2688 9.19486C18.8731 8.88764 18.3079 8.96079 18.005 9.36219C17.7012 9.76267 17.7743 10.336 18.1691 10.6441C18.1691 10.6441 20.301 12.3082 20.3064 12.3128C20.7625 12.6685 21.3854 12.8678 21.7974 12.3228L23.6183 9.92451C23.9221 9.52403 23.8491 8.95073 23.4542 8.6426C23.0594 8.33446 22.4933 8.40944 22.1904 8.80992L21.7983 9.32653C21.2115 5.79532 18.7731 2.77432 15.3115 1.5555C11.0567 0.0577958 6.35479 1.6643 3.87222 5.4625C3.59728 5.88401 3.71086 6.45091 4.12552 6.7307Z" fill="#363232"/>
</g>
<defs>
<clipPath id="clip0_248_599">
<rect width="25" height="21" fill="white" transform="translate(0.367432 0.35791)"/>
</clipPath>
</defs>
</svg>
