<svg width="19" height="21" viewBox="0 0 19 21" fill="none" xmlns="http://www.w3.org/2000/svg">
<g clip-path="url(#clip0_165_347)">
<g clip-path="url(#clip1_165_347)">
<path d="M9.5 10.5C10.8261 10.5 12.0979 9.97322 13.0355 9.03553C13.9732 8.09785 14.5 6.82608 14.5 5.5C14.5 4.17392 13.9732 2.90215 13.0355 1.96447C12.0979 1.02678 10.8261 0.5 9.5 0.5C8.17392 0.5 6.90215 1.02678 5.96447 1.96447C5.02678 2.90215 4.5 4.17392 4.5 5.5C4.5 6.82608 5.02678 8.09785 5.96447 9.03553C6.90215 9.97322 8.17392 10.5 9.5 10.5ZM7.71484 12.375C3.86719 12.375 0.75 15.4922 0.75 19.3398C0.75 19.9805 1.26953 20.5 1.91016 20.5H17.0898C17.7305 20.5 18.25 19.9805 18.25 19.3398C18.25 15.4922 15.1328 12.375 11.2852 12.375H7.71484Z" fill="#AEAEAE"/>
</g>
</g>
<defs>
<clipPath id="clip0_165_347">
<rect width="17.5" height="20" fill="white" transform="translate(0.75 0.5)"/>
</clipPath>
<clipPath id="clip1_165_347">
<path d="M0.75 0.5H18.25V20.5H0.75V0.5Z" fill="white"/>
</clipPath>
</defs>
</svg>
