<svg width="21" height="20" viewBox="0 0 21 20" fill="none" xmlns="http://www.w3.org/2000/svg">
<g clip-path="url(#clip0_165_326)">
<g clip-path="url(#clip1_165_326)">
<path d="M17.1549 0.93042H16.4571V2.32613C16.4571 2.81968 16.261 3.29302 15.912 3.64201C15.563 3.99101 15.0897 4.18707 14.5961 4.18707H6.68712C6.19357 4.18707 5.72023 3.99101 5.37123 3.64201C5.02224 3.29302 4.82618 2.81968 4.82618 2.32613V0.93042H4.12832C3.69722 0.932863 3.28447 1.1052 2.97962 1.41004C2.67478 1.71489 2.50244 2.12764 2.5 2.55874V18.3767C2.50244 18.8079 2.67478 19.2206 2.97962 19.5254C3.28447 19.8303 3.69722 20.0026 4.12832 20.0051H17.1549C17.586 20.0026 17.9988 19.8303 18.3036 19.5254C18.6085 19.2206 18.7808 18.8079 18.7832 18.3767V2.55874C18.7808 2.12764 18.6085 1.71489 18.3036 1.41004C17.9988 1.1052 17.586 0.932863 17.1549 0.93042ZM13.9448 10.2351L10.4555 13.957C10.32 14.0933 10.136 14.1703 9.94377 14.171C9.77191 14.1731 9.60566 14.1099 9.47853 13.9942L7.38497 12.1333C7.31565 12.0738 7.25905 12.0009 7.21855 11.919C7.17806 11.8371 7.1545 11.7479 7.14928 11.6567C7.14407 11.5655 7.15731 11.4741 7.18822 11.3881C7.21912 11.3022 7.26705 11.2233 7.32914 11.1563C7.44325 11.0091 7.61084 10.9128 7.79551 10.8884C7.98019 10.864 8.16703 10.9135 8.31544 11.026L9.89724 12.4403L12.9213 9.23022C13.0521 9.09953 13.2295 9.02613 13.4144 9.02613C13.5994 9.02613 13.7767 9.09953 13.9076 9.23022C14.0351 9.35495 14.11 9.52377 14.1169 9.70201C14.1238 9.88024 14.0622 10.0544 13.9448 10.1886V10.2351Z" fill="#AEAEAE"/>
<path d="M14.3634 0H6.91968C6.27732 0 5.75659 0.520733 5.75659 1.16309V2.09356C5.75659 2.73592 6.27732 3.25665 6.91968 3.25665H14.3634C15.0058 3.25665 15.5265 2.73592 15.5265 2.09356V1.16309C15.5265 0.520733 15.0058 0 14.3634 0Z" fill="#AEAEAE"/>
</g>
</g>
<defs>
<clipPath id="clip0_165_326">
<rect width="20" height="20" fill="white" transform="translate(0.5)"/>
</clipPath>
<clipPath id="clip1_165_326">
<rect width="21" height="21" fill="white" transform="translate(0 -0.5)"/>
</clipPath>
</defs>
</svg>
