<svg width="20" height="20" viewBox="0 0 20 20" fill="none" xmlns="http://www.w3.org/2000/svg">
<g clip-path="url(#clip0_165_340)">
<g clip-path="url(#clip1_165_340)">
<g clip-path="url(#clip2_165_340)">
<path d="M16.5487 -0.401123H3.82142C3.60358 -0.398615 3.39389 -0.317969 3.23051 -0.173867C3.87882 0.0542078 4.44922 0.461321 4.8756 1.00029C5.30197 1.53926 5.56688 2.18801 5.6396 2.87136C5.6535 2.99217 5.6535 3.11417 5.6396 3.23497V18.6884C5.63917 18.8622 5.68862 19.0326 5.78207 19.1792C5.87553 19.3258 6.00908 19.4426 6.16688 19.5156C6.32505 19.5884 6.5008 19.6142 6.67324 19.5901C6.84568 19.5659 7.00755 19.4927 7.1396 19.3792L9.73051 17.1612L12.3214 19.3792C12.4861 19.5201 12.6956 19.5975 12.9123 19.5975C13.129 19.5975 13.3386 19.5201 13.5032 19.3792L16.0941 17.1612L18.6851 19.3792C18.8497 19.52 19.0593 19.5974 19.276 19.5974C19.4075 19.5965 19.5374 19.5686 19.6578 19.5156C19.8156 19.4426 19.9491 19.3258 20.0426 19.1792C20.136 19.0326 20.1855 18.8622 20.1851 18.6884V3.23497C20.1851 2.27062 19.8019 1.34576 19.12 0.663864C18.438 -0.0180356 17.5131 -0.401123 16.5487 -0.401123ZM15.6396 12.3252H10.1851C9.94395 12.3252 9.71272 12.2294 9.54223 12.059C9.37175 11.8885 9.27597 11.6573 9.27597 11.4162C9.27597 11.1751 9.37175 10.9439 9.54223 10.7734C9.71272 10.6029 9.94395 10.5072 10.1851 10.5072H15.6396C15.8807 10.5072 16.1119 10.6029 16.2824 10.7734C16.4529 10.9439 16.5487 11.1751 16.5487 11.4162C16.5487 11.6573 16.4529 11.8885 16.2824 12.059C16.1119 12.2294 15.8807 12.3252 15.6396 12.3252ZM15.6396 8.68911H10.1851C9.94395 8.68911 9.71272 8.59334 9.54223 8.42286C9.37175 8.25239 9.27597 8.02118 9.27597 7.78009C9.27597 7.539 9.37175 7.30779 9.54223 7.13731C9.71272 6.96684 9.94395 6.87106 10.1851 6.87106H15.6396C15.8807 6.87106 16.1119 6.96684 16.2824 7.13731C16.4529 7.30779 16.5487 7.539 16.5487 7.78009C16.5487 8.02118 16.4529 8.25239 16.2824 8.42286C16.1119 8.59334 15.8807 8.68911 15.6396 8.68911ZM15.6396 5.05302H10.1851C9.94395 5.05302 9.71272 4.95725 9.54223 4.78677C9.37175 4.6163 9.27597 4.38508 9.27597 4.14399C9.27597 3.90291 9.37175 3.67169 9.54223 3.50122C9.71272 3.33074 9.94395 3.23497 10.1851 3.23497H15.6396C15.8807 3.23497 16.1119 3.33074 16.2824 3.50122C16.4529 3.67169 16.5487 3.90291 16.5487 4.14399C16.5487 4.38508 16.4529 4.6163 16.2824 4.78677C16.1119 4.95725 15.8807 5.05302 15.6396 5.05302ZM3.82142 3.23497V10.5072H1.09415C0.853043 10.5072 0.621813 10.4114 0.451325 10.2409C0.280837 10.0704 0.185059 9.83922 0.185059 9.59813V3.23497C0.185059 3.10771 0.185059 2.98953 0.185059 2.87136C0.23328 2.38919 0.471084 1.94591 0.846156 1.63906C1.22123 1.3322 1.70285 1.1869 2.18506 1.23512C2.66727 1.28334 3.11058 1.52112 3.41745 1.89617C3.72433 2.27121 3.86964 2.75279 3.82142 3.23497Z" fill="#AEAEAE"/>
</g>
</g>
</g>
<defs>
<clipPath id="clip0_165_340">
<rect width="20" height="20" fill="white"/>
</clipPath>
<clipPath id="clip1_165_340">
<rect width="20" height="20" fill="white"/>
</clipPath>
<clipPath id="clip2_165_340">
<rect width="20" height="20" fill="white" transform="translate(0.185059 -0.401123)"/>
</clipPath>
</defs>
</svg>
