<svg width="21" height="20" viewBox="0 0 21 20" fill="none" xmlns="http://www.w3.org/2000/svg">
<g clip-path="url(#clip0_165_333)">
<g clip-path="url(#clip1_165_333)">
<g clip-path="url(#clip2_165_333)">
<path d="M17.0487 -0.401123H4.32142C4.10358 -0.398615 3.89389 -0.317969 3.73051 -0.173867C4.37882 0.0542078 4.94922 0.461321 5.3756 1.00029C5.80197 1.53926 6.06688 2.18801 6.1396 2.87136C6.1535 2.99217 6.1535 3.11417 6.1396 3.23497V18.6884C6.13917 18.8622 6.18862 19.0326 6.28207 19.1792C6.37553 19.3258 6.50908 19.4426 6.66688 19.5156C6.82505 19.5884 7.0008 19.6142 7.17324 19.5901C7.34568 19.5659 7.50755 19.4927 7.6396 19.3792L10.2305 17.1612L12.8214 19.3792C12.9861 19.5201 13.1956 19.5975 13.4123 19.5975C13.629 19.5975 13.8386 19.5201 14.0032 19.3792L16.5941 17.1612L19.1851 19.3792C19.3497 19.52 19.5593 19.5974 19.776 19.5974C19.9075 19.5965 20.0374 19.5686 20.1578 19.5156C20.3156 19.4426 20.4491 19.3258 20.5426 19.1792C20.636 19.0326 20.6855 18.8622 20.6851 18.6884V3.23497C20.6851 2.27062 20.3019 1.34576 19.62 0.663864C18.938 -0.0180356 18.0131 -0.401123 17.0487 -0.401123ZM16.1396 12.3252H10.6851C10.444 12.3252 10.2127 12.2294 10.0422 12.059C9.87175 11.8885 9.77597 11.6573 9.77597 11.4162C9.77597 11.1751 9.87175 10.9439 10.0422 10.7734C10.2127 10.6029 10.444 10.5072 10.6851 10.5072H16.1396C16.3807 10.5072 16.6119 10.6029 16.7824 10.7734C16.9529 10.9439 17.0487 11.1751 17.0487 11.4162C17.0487 11.6573 16.9529 11.8885 16.7824 12.059C16.6119 12.2294 16.3807 12.3252 16.1396 12.3252ZM16.1396 8.68911H10.6851C10.444 8.68911 10.2127 8.59334 10.0422 8.42286C9.87175 8.25239 9.77597 8.02118 9.77597 7.78009C9.77597 7.539 9.87175 7.30779 10.0422 7.13731C10.2127 6.96684 10.444 6.87106 10.6851 6.87106H16.1396C16.3807 6.87106 16.6119 6.96684 16.7824 7.13731C16.9529 7.30779 17.0487 7.539 17.0487 7.78009C17.0487 8.02118 16.9529 8.25239 16.7824 8.42286C16.6119 8.59334 16.3807 8.68911 16.1396 8.68911ZM16.1396 5.05302H10.6851C10.444 5.05302 10.2127 4.95725 10.0422 4.78677C9.87175 4.6163 9.77597 4.38508 9.77597 4.14399C9.77597 3.90291 9.87175 3.67169 10.0422 3.50122C10.2127 3.33074 10.444 3.23497 10.6851 3.23497H16.1396C16.3807 3.23497 16.6119 3.33074 16.7824 3.50122C16.9529 3.67169 17.0487 3.90291 17.0487 4.14399C17.0487 4.38508 16.9529 4.6163 16.7824 4.78677C16.6119 4.95725 16.3807 5.05302 16.1396 5.05302ZM4.32142 3.23497V10.5072H1.59415C1.35304 10.5072 1.12181 10.4114 0.951325 10.2409C0.780837 10.0704 0.685059 9.83922 0.685059 9.59813V3.23497C0.685059 3.10771 0.685059 2.98953 0.685059 2.87136C0.73328 2.38919 0.971084 1.94591 1.34616 1.63906C1.72123 1.3322 2.20285 1.1869 2.68506 1.23512C3.16727 1.28334 3.61058 1.52112 3.91745 1.89617C4.22433 2.27121 4.36964 2.75279 4.32142 3.23497Z" fill="#AEAEAE"/>
</g>
</g>
</g>
<defs>
<clipPath id="clip0_165_333">
<rect width="20" height="20" fill="white" transform="translate(0.5)"/>
</clipPath>
<clipPath id="clip1_165_333">
<rect width="20" height="20" fill="white" transform="translate(0.5)"/>
</clipPath>
<clipPath id="clip2_165_333">
<rect width="20" height="20" fill="white" transform="translate(0.685059 -0.401123)"/>
</clipPath>
</defs>
</svg>
