<svg width="236" height="208" viewBox="0 0 236 208" fill="none" xmlns="http://www.w3.org/2000/svg">
<g opacity="0.75">
<path d="M118.008 163.853C119.088 163.853 119.963 162.977 119.963 161.897C119.963 160.817 119.088 159.942 118.008 159.942C116.928 159.942 116.052 160.817 116.052 161.897C116.052 162.977 116.928 163.853 118.008 163.853Z" fill="#CFCFCF"/>
<path d="M61.1888 16.6069V25.1887" stroke="#BABABA" stroke-width="5.3156" stroke-linecap="round" stroke-linejoin="round"/>
<path d="M56.8778 20.8975H65.4795" stroke="#BABABA" stroke-width="5.3156" stroke-linecap="round" stroke-linejoin="round"/>
<path d="M158.881 70.7312C142.176 70.7312 125.172 70.0528 109.266 65.6221C93.6592 61.2912 79.3299 52.8893 66.557 43.1699C58.1949 36.8435 50.5912 31.794 39.7341 32.5524C29.1129 33.1272 18.9561 37.0931 10.7558 43.8682C-3.05492 55.9624 -0.979029 78.3747 4.54916 94.0612C12.8516 117.751 38.1178 134.256 59.5919 144.933C84.399 157.326 111.661 164.531 138.983 168.662C162.932 172.314 193.706 174.949 214.462 159.322C233.522 144.933 238.75 112.122 234.08 89.9699C232.947 83.4257 229.462 77.5206 224.281 73.3654C210.89 63.5664 190.912 70.1125 175.865 70.4316C170.276 70.5518 164.589 70.6915 158.881 70.7312Z" fill="#F2F2F2"/>
<path d="M131.858 4.91149C132.939 4.91149 133.814 4.03593 133.814 2.95574C133.814 1.87556 132.939 1 131.858 1C130.778 1 129.903 1.87556 129.903 2.95574C129.902 4.03593 130.778 4.91149 131.858 4.91149Z" fill="#CFCFCF"/>
<path d="M224.291 175V183.582" stroke="#BABABA" stroke-width="5.3156" stroke-linecap="round" stroke-linejoin="round"/>
<path d="M220 179.291H228.582" stroke="#BABABA" stroke-width="5.3156" stroke-linecap="round" stroke-linejoin="round"/>
<path d="M118.806 207.5C159.268 207.5 192.07 205.454 192.07 202.93C192.07 200.405 159.268 198.359 118.806 198.359C78.3433 198.359 45.5421 200.405 45.5421 202.93C45.5421 205.454 78.3433 207.5 118.806 207.5Z" fill="#F2F2F2"/>
<path d="M177.701 153.974H51.1503C50.3036 153.974 49.4668 153.789 48.6982 153.433C47.9296 153.078 47.2474 152.559 46.6989 151.915C46.1504 151.268 45.7486 150.512 45.5215 149.695C45.2943 148.879 45.2466 148.025 45.3826 147.189L61.568 49.0379C61.7869 47.672 62.486 46.4285 63.5395 45.5323C64.5934 44.6357 65.9323 44.145 67.3159 44.1483H193.866C194.712 44.1483 195.549 44.3327 196.317 44.6886C197.083 45.0445 197.766 45.5634 198.313 46.2092C198.86 46.855 199.259 47.6119 199.484 48.4278C199.708 49.244 199.754 50.0989 199.614 50.9335L183.509 149.085C183.286 150.459 182.577 151.707 181.511 152.605C180.445 153.501 179.094 153.988 177.701 153.974Z" fill="#D2D2D2"/>
<path d="M179.259 41.5814L104.142 8.04246C101.928 7.05389 99.3315 8.04734 98.343 10.2618L74.5354 63.5838C73.5468 65.7983 74.5403 68.3945 76.7543 69.3831L151.871 102.922C154.086 103.91 156.683 102.917 157.671 100.703L181.478 47.3807C182.468 45.1663 181.475 42.57 179.259 41.5814Z" fill="white" stroke="#BABABA" stroke-width="5.3156" stroke-linecap="round" stroke-linejoin="round"/>
<path d="M115.154 51.9117C117.131 49.1371 120.007 47.1318 123.294 46.2352C126.58 45.3386 130.076 45.6056 133.188 46.9914C136.3 48.3772 138.838 50.7966 140.371 53.8393C141.903 56.882 142.337 60.361 141.598 63.6867" stroke="#BABABA" stroke-width="3.6146" stroke-linecap="round" stroke-linejoin="round"/>
<path d="M151.077 48.898C152.213 48.898 153.133 47.9774 153.133 46.8424C153.133 45.707 152.212 44.7867 151.077 44.7867C149.942 44.7867 149.021 45.707 149.021 46.8424C149.021 47.9777 149.942 48.898 151.077 48.898Z" fill="#BABABA"/>
<path d="M121.3 35.6065C122.435 35.6065 123.356 34.6862 123.356 33.5509C123.356 32.4159 122.435 31.4952 121.3 31.4952C120.165 31.4952 119.245 32.4159 119.245 33.5509C119.245 34.6862 120.165 35.6065 121.3 35.6065Z" fill="#BABABA"/>
<path d="M177.142 153.934H49.9729C48.4256 153.928 46.9433 153.309 45.8511 152.214C44.7586 151.118 44.1454 149.633 44.1454 148.086V58.4174C44.127 57.6395 44.2637 56.8657 44.5479 56.1414C44.8322 55.4168 45.2583 54.7567 45.8012 54.1988C46.3437 53.6413 46.9925 53.1975 47.7089 52.8937C48.4252 52.59 49.1949 52.4323 49.9732 52.4301H96.2946C97.3695 52.4342 98.4223 52.7342 99.338 53.2974C100.253 53.8609 100.996 54.6655 101.484 55.6233L108.089 68.5558C108.576 69.5151 109.318 70.3212 110.234 70.8844C111.149 71.448 112.203 71.7472 113.279 71.7491H177.142C178.687 71.7491 180.17 72.3629 181.263 73.4559C182.355 74.5488 182.97 76.0311 182.97 77.5769V148.086C182.97 149.633 182.357 151.118 181.263 152.214C180.171 153.309 178.688 153.928 177.142 153.934Z" fill="white" stroke="#BABABA" stroke-width="5.3156" stroke-linecap="round" stroke-linejoin="round"/>
<path d="M125.777 116.58C126.005 110.848 124.528 105.177 121.532 100.285C118.537 95.3929 114.158 91.4992 108.949 89.0961C103.74 86.6931 97.9364 85.8886 92.2704 86.7846C86.6048 87.6807 81.3318 90.2369 77.1188 94.1299C72.9059 98.0232 69.9421 103.078 68.602 108.656C67.2621 114.234 67.6067 120.083 69.5927 125.465C71.5777 130.848 75.1146 135.52 79.7552 138.891C84.3958 142.262 89.9326 144.182 95.6644 144.406C103.347 144.707 110.835 141.946 116.481 136.727C122.129 131.509 125.472 124.262 125.777 116.58Z" fill="white" stroke="#BABABA" stroke-width="5.3156" stroke-linecap="round" stroke-linejoin="round"/>
<path d="M72.0322 137.463L61.7534 146.967" stroke="#BABABA" stroke-width="5.3156" stroke-linecap="round" stroke-linejoin="round"/>
<path d="M66.6024 146.036L63.5079 142.839C62.1201 141.405 59.8348 141.367 58.4004 142.753L31.8613 168.423C30.4269 169.808 30.3891 172.096 31.7769 173.53L34.8713 176.729C36.2572 178.163 38.5443 178.201 39.9788 176.813L66.5167 151.146C67.9516 149.758 67.9894 147.471 66.6024 146.036Z" fill="#D2D2D2"/>
<path d="M212.526 2.95581V11.5575" stroke="#BABABA" stroke-width="5.3156" stroke-linecap="round" stroke-linejoin="round"/>
<path d="M208.216 7.26672H216.817" stroke="#BABABA" stroke-width="5.3156" stroke-linecap="round" stroke-linejoin="round"/>
</g>
</svg>
