<svg width="23" height="24" viewBox="0 0 23 24" fill="none" xmlns="http://www.w3.org/2000/svg">
<path d="M9.31229 20.8518C9.82197 21.4785 10.5704 21.884 11.392 21.9787C12.2136 22.0734 13.0406 21.8495 13.6899 21.3564C13.8897 21.2106 14.0694 21.041 14.2248 20.8518M3.13207 13.7871V13.5681C3.16486 12.9202 3.37684 12.2925 3.74613 11.7496C4.36082 11.0975 4.78161 10.2983 4.96435 9.43598C4.96435 8.7695 4.96435 8.0935 5.02377 7.42703C5.3308 4.21842 8.56948 2 11.7685 2H11.8478C15.0468 2 18.2855 4.21842 18.6024 7.42703C18.6619 8.0935 18.6024 8.7695 18.652 9.43598C18.8372 10.3003 19.2575 11.1019 19.8702 11.7591C20.2422 12.2972 20.4545 12.9227 20.4842 13.5681V13.7776C20.5063 14.648 20.2003 15.4968 19.6226 16.1674C18.8591 16.9515 17.8231 17.4393 16.7107 17.5384C13.4488 17.8812 10.1576 17.8812 6.89567 17.5384C5.78451 17.435 4.75002 16.9479 3.98383 16.1674C3.41502 15.4963 3.1131 14.6526 3.13207 13.7871Z" stroke="#363232" stroke-width="2" stroke-linecap="round" stroke-linejoin="round"/>
</svg>
