<svg width="93" height="97" viewBox="0 0 93 97" fill="none" xmlns="http://www.w3.org/2000/svg">
<path d="M86.2481 40.0244C86.2481 61.9627 68.4477 79.7633 46.5095 79.7633C24.5533 79.7633 6.75293 61.9627 6.75293 40.0244C6.75293 18.0686 24.5533 0.285645 46.5095 0.285645C68.4477 0.285645 86.2481 18.0686 86.2481 40.0244Z" fill="url(#paint0_linear_248_1531)"/>
<path d="M37.81 32.9361C37.1712 32.9361 36.6529 32.4178 36.6529 31.779C36.6529 29.485 34.7869 27.619 32.4929 27.619C30.1975 27.619 28.3299 29.485 28.3299 31.779C28.3299 32.4178 27.8116 32.9361 27.1728 32.9361C26.5339 32.9361 26.0156 32.4178 26.0156 31.779C26.0156 28.2088 28.9213 25.3047 32.4929 25.3047C36.063 25.3047 38.9672 28.2088 38.9672 31.779C38.9672 32.4178 38.4489 32.9361 37.81 32.9361Z" fill="url(#paint1_linear_248_1531)"/>
<path d="M65.8286 32.9361C65.1898 32.9361 64.6715 32.4178 64.6715 31.779C64.6715 29.485 62.8054 27.619 60.5115 27.619C58.216 27.619 56.3485 29.485 56.3485 31.779C56.3485 32.4178 55.8302 32.9361 55.1913 32.9361C54.5525 32.9361 54.0342 32.4178 54.0342 31.779C54.0342 28.2088 56.9398 25.3047 60.5115 25.3047C64.0816 25.3047 66.9857 28.2088 66.9857 31.779C66.9857 32.4178 66.4674 32.9361 65.8286 32.9361Z" fill="url(#paint2_linear_248_1531)"/>
<path d="M28.9509 45.6333C27.7513 45.6333 26.8765 46.8167 27.2704 47.9498C30.0372 55.9093 37.5993 61.629 46.5054 61.629C55.404 61.629 62.9648 55.9092 65.7311 47.9497C66.1249 46.8166 65.2501 45.6333 64.0505 45.6333H28.9509Z" fill="url(#paint3_linear_248_1531)"/>
<path d="M92.8522 71.5367V93.7443C92.8522 95.3845 91.5226 96.7141 89.8824 96.7141H3.11824C1.47806 96.7141 0.148438 95.3845 0.148438 93.7443V71.5367C0.148438 69.8965 1.47806 68.5669 3.11824 68.5669H89.8824C91.5226 68.5669 92.8522 69.8965 92.8522 71.5367Z" fill="url(#paint4_linear_248_1531)"/>
<path d="M18.9636 76.0122C19.103 76.0122 19.2235 76.0627 19.3252 76.1644C19.427 76.2661 19.4774 76.3866 19.4774 76.526V77.8783C19.4774 78.0184 19.427 78.1389 19.3252 78.2399C19.2235 78.3416 19.103 78.3928 18.9636 78.3928H15.5359V88.8282C15.5359 88.9683 15.4847 89.0888 15.383 89.1905C15.2813 89.2922 15.1607 89.3427 15.0214 89.3427H13.4785C13.3391 89.3427 13.2186 89.2922 13.1169 89.1905C13.0152 89.0888 12.9647 88.9683 12.9647 88.8282V78.3928H9.537C9.39688 78.3928 9.27634 78.3416 9.17464 78.2399C9.07294 78.1389 9.02246 78.0184 9.02246 77.8783V76.526C9.02246 76.3866 9.07294 76.2661 9.17464 76.1644C9.27634 76.0627 9.39688 76.0122 9.537 76.0122H18.9636Z" fill="url(#paint5_linear_248_1531)"/>
<path d="M31.7607 76.0122C31.9001 76.0122 32.0206 76.0627 32.1223 76.1644C32.224 76.2661 32.2745 76.3866 32.2745 76.526V88.8282C32.2745 88.9683 32.224 89.0888 32.1223 89.1905C32.0206 89.2922 31.9001 89.3427 31.7607 89.3427H30.2179C30.0785 89.3427 29.958 89.2922 29.8562 89.1905C29.7545 89.0888 29.7041 88.9683 29.7041 88.8282V83.8011H23.9523V88.8282C23.9523 88.9683 23.9018 89.0888 23.8001 89.1905C23.6984 89.2922 23.5778 89.3427 23.4385 89.3427H21.8956C21.7563 89.3427 21.6357 89.2952 21.534 89.1996C21.4323 89.1046 21.3818 88.9811 21.3818 88.8282V76.526C21.3818 76.3866 21.4323 76.2661 21.534 76.1644C21.6357 76.0627 21.7563 76.0122 21.8956 76.0122H23.4385C23.5778 76.0122 23.6984 76.0627 23.8001 76.1644C23.9018 76.2661 23.9523 76.3866 23.9523 76.526V81.4205H29.7041V76.526C29.7041 76.3866 29.7545 76.2661 29.8562 76.1644C29.958 76.0627 30.0785 76.0122 30.2179 76.0122H31.7607Z" fill="url(#paint6_linear_248_1531)"/>
<path d="M41.5112 76.0122C41.7138 76.0122 41.866 76.0664 41.9677 76.1742C42.0694 76.2819 42.1583 76.4439 42.2344 76.6593L46.8999 88.6956C46.9127 88.7332 46.9195 88.7777 46.9195 88.8282C46.9195 88.9683 46.8682 89.0888 46.7673 89.1905C46.6648 89.2922 46.5443 89.3427 46.4049 89.3427H45.0338C44.7799 89.3427 44.6022 89.2892 44.5004 89.1807C44.3987 89.073 44.3294 88.9683 44.291 88.8666L43.4721 86.7527H37.4544L36.6355 88.8666C36.5978 88.9683 36.5278 89.073 36.4261 89.1807C36.3244 89.2892 36.1466 89.3427 35.8927 89.3427H34.5216C34.3822 89.3427 34.2617 89.2922 34.16 89.1905C34.0583 89.0888 34.0078 88.9683 34.0078 88.8282C34.0078 88.7777 34.0138 88.7332 34.0266 88.6956L38.6921 76.6593C38.7682 76.4439 38.8571 76.2819 38.9588 76.1742C39.0605 76.0664 39.2127 76.0122 39.4161 76.0122H41.5112ZM42.5583 84.3721L40.4633 78.945L38.3689 84.3721H42.5583Z" fill="url(#paint7_linear_248_1531)"/>
<path d="M57.2978 89.3427C57.0823 89.3427 56.9173 89.2854 56.8028 89.1709C56.6883 89.0572 56.6062 88.9683 56.5557 88.905L51.2228 80.9828V88.8282C51.2228 88.9683 51.1723 89.0888 51.0706 89.1905C50.9689 89.2922 50.8484 89.3427 50.709 89.3427H49.1661C49.0268 89.3427 48.9062 89.2922 48.8045 89.1905C48.7028 89.0888 48.6523 88.9683 48.6523 88.8282V76.526C48.6523 76.3866 48.7028 76.2661 48.8045 76.1644C48.9062 76.0627 49.0268 76.0122 49.1661 76.0122H50.4996C50.715 76.0122 50.88 76.0695 50.9945 76.1832C51.109 76.2977 51.1911 76.3866 51.2424 76.4499L56.5746 84.3721V76.526C56.5746 76.3866 56.625 76.2661 56.7267 76.1644C56.8284 76.0627 56.949 76.0122 57.0883 76.0122H58.6312C58.7706 76.0122 58.8911 76.0627 58.9928 76.1644C59.0945 76.2661 59.145 76.3866 59.145 76.526V88.8282C59.145 88.9683 59.0945 89.0888 58.9928 89.1905C58.8911 89.2922 58.7706 89.3427 58.6312 89.3427H57.2978Z" fill="url(#paint8_linear_248_1531)"/>
<path d="M72.2284 88.5426C72.2917 88.6067 72.3301 88.6639 72.3429 88.7144C72.355 88.7649 72.3617 88.8033 72.3617 88.8282C72.3617 88.9683 72.3105 89.0888 72.2096 89.1905C72.1079 89.2922 71.9873 89.3427 71.8472 89.3427H70.0384C69.7838 89.3427 69.5811 89.2764 69.429 89.1431C69.2768 89.0097 69.1879 88.9306 69.1623 88.905L64.6866 83.8583V88.8282C64.6866 88.9683 64.6362 89.0888 64.5345 89.1905C64.4328 89.2922 64.3122 89.3427 64.1729 89.3427H62.63C62.4906 89.3427 62.3701 89.2922 62.2684 89.1905C62.1667 89.0888 62.1162 88.9683 62.1162 88.8282V76.526C62.1162 76.3866 62.1667 76.2661 62.2684 76.1644C62.3701 76.0627 62.4906 76.0122 62.63 76.0122H64.1729C64.3122 76.0122 64.4328 76.0627 64.5345 76.1644C64.6362 76.2661 64.6866 76.3866 64.6866 76.526V81.0016L68.8383 76.4311C68.9528 76.3045 69.0734 76.2028 69.2007 76.126C69.3273 76.0499 69.4922 76.0122 69.6956 76.0122H71.4472C71.5873 76.0122 71.7078 76.0627 71.8095 76.1644C71.9105 76.2661 71.9617 76.3866 71.9617 76.526C71.9617 76.6277 71.9233 76.7234 71.8472 76.8115L66.7244 82.3916L72.2284 88.5426Z" fill="url(#paint9_linear_248_1531)"/>
<path d="M78.1132 75.8218C78.9637 75.8218 79.7125 75.9363 80.3604 76.1646C81.0075 76.3928 81.5469 76.6783 81.9786 77.0219C82.4103 77.3646 82.7372 77.7421 82.9595 78.1549C83.1817 78.567 83.3052 78.958 83.3309 79.3256C83.3437 79.4778 83.2962 79.6021 83.1885 79.697C83.08 79.7927 82.9564 79.8401 82.8171 79.8401H81.4837C81.2674 79.8401 81.1055 79.7987 80.9977 79.7158C80.89 79.6337 80.7913 79.523 80.7032 79.3829C80.5126 79.0657 80.2233 78.7892 79.8361 78.5542C79.4489 78.3199 78.8748 78.2024 78.1132 78.2024C77.7825 78.2024 77.4683 78.237 77.17 78.3071C76.8717 78.3771 76.6118 78.4781 76.3895 78.6114C76.1673 78.7448 75.9925 78.9067 75.8659 79.0973C75.7386 79.2879 75.6753 79.5034 75.6753 79.7445C75.6753 80.0368 75.7356 80.2748 75.8561 80.4586C75.9767 80.6432 76.1801 80.8014 76.4656 80.9348C76.7511 81.0681 77.1293 81.1924 77.5986 81.3062C78.068 81.4207 78.6526 81.554 79.3509 81.7062C80.1126 81.8712 80.7695 82.0648 81.3217 82.287C81.8739 82.5092 82.3244 82.7759 82.6739 83.0871C83.0227 83.3982 83.2834 83.7568 83.4544 84.1628C83.6262 84.5697 83.7121 85.033 83.7121 85.5528C83.7121 86.1246 83.5847 86.6549 83.3309 87.1431C83.077 87.632 82.7154 88.0509 82.2453 88.4004C81.776 88.7492 81.1981 89.0257 80.5126 89.2284C79.827 89.4318 79.0586 89.5335 78.2081 89.5335C77.4969 89.5335 76.8182 89.4476 76.1703 89.2766C75.5232 89.1048 74.9484 88.857 74.4474 88.5338C73.9457 88.2098 73.5426 87.8196 73.2375 87.3623C72.9332 86.905 72.7614 86.3973 72.7237 85.839C72.7109 85.6861 72.7584 85.5626 72.8661 85.4676C72.9738 85.372 73.0981 85.3245 73.2375 85.3245H74.5709C74.7864 85.3245 74.9514 85.3629 75.0659 85.439C75.1804 85.5151 75.2753 85.6296 75.3514 85.7818C75.4403 85.9468 75.548 86.1118 75.6753 86.2767C75.8019 86.4417 75.9737 86.5879 76.1899 86.7152C76.4053 86.8418 76.675 86.9465 76.999 87.0293C77.3229 87.1115 77.7252 87.1529 78.2081 87.1529C78.5893 87.1529 78.9569 87.1243 79.3125 87.067C79.6681 87.0098 79.9792 86.9148 80.2459 86.7815C80.5126 86.6481 80.728 86.4832 80.893 86.2865C81.058 86.0899 81.1409 85.8451 81.1409 85.5528C81.1409 85.274 81.052 85.0458 80.8742 84.8672C80.6964 84.6902 80.4267 84.5373 80.0651 84.4107C79.7035 84.2834 79.2552 84.1628 78.7226 84.0483C78.1893 83.9346 77.573 83.7884 76.8754 83.6106C76.2404 83.4585 75.6851 83.2777 75.209 83.0682C74.7329 82.8588 74.3389 82.6012 74.0278 82.2968C73.7166 81.9917 73.4854 81.6331 73.3332 81.221C73.1802 80.8082 73.1042 80.3163 73.1042 79.7445C73.1042 79.1734 73.2315 78.6468 73.4854 78.1639C73.7392 77.6818 74.088 77.269 74.5325 76.9262C74.977 76.5834 75.5066 76.3137 76.1228 76.1171C76.7383 75.9205 77.402 75.8218 78.1132 75.8218Z" fill="url(#paint10_linear_248_1531)"/>
<path d="M86.2484 67.2265C86.2484 69.9988 83.0972 72.2373 79.2061 72.2373C75.3319 72.2373 72.1807 69.9988 72.1807 67.2265C72.1807 64.4543 75.3319 62.2158 79.2061 62.2158C83.0972 62.2158 86.2484 64.4543 86.2484 67.2265Z" fill="url(#paint11_linear_248_1531)"/>
<path d="M20.8207 67.2265C20.8207 69.9988 17.6695 72.2373 13.7784 72.2373C9.90413 72.2373 6.75293 69.9988 6.75293 67.2265C6.75293 64.4543 9.90413 62.2158 13.7784 62.2158C17.6695 62.2158 20.8207 64.4543 20.8207 67.2265Z" fill="url(#paint12_linear_248_1531)"/>
<defs>
<linearGradient id="paint0_linear_248_1531" x1="19.9896" y1="6.6993" x2="76.3841" y2="77.5797" gradientUnits="userSpaceOnUse">
<stop offset="1.8e-06" stop-color="#FFCC33"/>
<stop offset="1" stop-color="#FF9933"/>
</linearGradient>
<linearGradient id="paint1_linear_248_1531" x1="32.4916" y1="24.0828" x2="32.4916" y2="35.2809" gradientUnits="userSpaceOnUse">
<stop offset="1.9e-06" stop-color="#666666"/>
<stop offset="1" stop-color="#4C4947"/>
</linearGradient>
<linearGradient id="paint2_linear_248_1531" x1="60.6117" y1="25.1829" x2="60.4944" y2="32.8046" gradientUnits="userSpaceOnUse">
<stop offset="1.9e-06" stop-color="#666666"/>
<stop offset="1" stop-color="#4C4947"/>
</linearGradient>
<linearGradient id="paint3_linear_248_1531" x1="46.5007" y1="44.0548" x2="46.5007" y2="58.5838" gradientUnits="userSpaceOnUse">
<stop offset="1.9e-06" stop-color="#666666"/>
<stop offset="1" stop-color="#4C4947"/>
</linearGradient>
<linearGradient id="paint4_linear_248_1531" x1="46.7657" y1="67.0327" x2="46.2704" y2="96.1201" gradientUnits="userSpaceOnUse">
<stop stop-color="#CCE8FF"/>
<stop offset="1" stop-color="#99CCFF"/>
</linearGradient>
<linearGradient id="paint5_linear_248_1531" x1="14.0592" y1="70.9144" x2="14.7504" y2="93.67" gradientUnits="userSpaceOnUse">
<stop stop-color="#588FBC"/>
<stop offset="1" stop-color="#336699"/>
</linearGradient>
<linearGradient id="paint6_linear_248_1531" x1="26.459" y1="70.5379" x2="27.1518" y2="93.292" gradientUnits="userSpaceOnUse">
<stop stop-color="#588FBC"/>
<stop offset="1" stop-color="#336699"/>
</linearGradient>
<linearGradient id="paint7_linear_248_1531" x1="39.8941" y1="70.1275" x2="40.5868" y2="92.8831" gradientUnits="userSpaceOnUse">
<stop stop-color="#588FBC"/>
<stop offset="1" stop-color="#336699"/>
</linearGradient>
<linearGradient id="paint8_linear_248_1531" x1="53.5038" y1="69.714" x2="54.1966" y2="92.4681" gradientUnits="userSpaceOnUse">
<stop stop-color="#588FBC"/>
<stop offset="1" stop-color="#336699"/>
</linearGradient>
<linearGradient id="paint9_linear_248_1531" x1="66.6444" y1="69.3144" x2="67.3371" y2="92.0685" gradientUnits="userSpaceOnUse">
<stop stop-color="#588FBC"/>
<stop offset="1" stop-color="#336699"/>
</linearGradient>
<linearGradient id="paint10_linear_248_1531" x1="77.7101" y1="68.9783" x2="78.4029" y2="91.7323" gradientUnits="userSpaceOnUse">
<stop stop-color="#588FBC"/>
<stop offset="1" stop-color="#336699"/>
</linearGradient>
<linearGradient id="paint11_linear_248_1531" x1="79.3884" y1="60.8614" x2="79.086" y2="71.9237" gradientUnits="userSpaceOnUse">
<stop offset="1.8e-06" stop-color="#FFCC33"/>
<stop offset="1" stop-color="#FF9933"/>
</linearGradient>
<linearGradient id="paint12_linear_248_1531" x1="13.7873" y1="61.9198" x2="13.7873" y2="72.223" gradientUnits="userSpaceOnUse">
<stop offset="1.8e-06" stop-color="#FFCC33"/>
<stop offset="1" stop-color="#FF9933"/>
</linearGradient>
</defs>
</svg>
