<svg width="23" height="23" viewBox="0 0 23 23" fill="none" xmlns="http://www.w3.org/2000/svg">
<path d="M9.12065 19.6138C9.59723 20.1883 10.2971 20.56 11.0653 20.6468C11.8336 20.7337 12.6069 20.5284 13.2141 20.0764C13.4008 19.9427 13.5688 19.7873 13.7142 19.6138M3.34173 13.1379V12.9371C3.3724 12.3432 3.5706 11.7678 3.91592 11.2701C4.49069 10.6723 4.88416 9.93979 5.05503 9.14932C5.05503 8.53838 5.05503 7.91872 5.1106 7.30778C5.39769 4.36656 8.42607 2.33301 11.4174 2.33301H11.4915C14.4828 2.33301 17.5112 4.36656 17.8076 7.30778C17.8631 7.91872 17.8076 8.53838 17.8539 9.14932C18.027 9.94162 18.4201 10.6765 18.993 11.2789C19.3409 11.7721 19.5394 12.3454 19.5672 12.9371V13.1291C19.5878 13.927 19.3017 14.7051 18.7615 15.3198C18.0476 16.0385 17.0789 16.4857 16.0387 16.5766C12.9885 16.8908 9.91111 16.8908 6.86095 16.5766C5.82194 16.4818 4.85462 16.0352 4.13818 15.3198C3.60631 14.7046 3.32399 13.9312 3.34173 13.1379Z" stroke="#353B43" stroke-width="1.5" stroke-linecap="round" stroke-linejoin="round"/>
</svg>
