<svg width="23" height="21" viewBox="0 0 23 21" fill="none" xmlns="http://www.w3.org/2000/svg">
<g clip-path="url(#clip0_12_399)">
<g clip-path="url(#clip1_12_399)">
<path d="M22.7422 10.4805C22.7422 11.1836 22.1562 11.7344 21.4922 11.7344H20.2422L20.2695 17.9922C20.2695 18.0977 20.2617 18.2031 20.25 18.3086V18.9375C20.25 19.8008 19.5508 20.5 18.6875 20.5H18.0625C18.0195 20.5 17.9766 20.5 17.9336 20.4961C17.8789 20.5 17.8242 20.5 17.7695 20.5H16.5H15.5625C14.6992 20.5 14 19.8008 14 18.9375V18V15.5C14 14.8086 13.4414 14.25 12.75 14.25H10.25C9.55859 14.25 9 14.8086 9 15.5V18V18.9375C9 19.8008 8.30078 20.5 7.4375 20.5H6.5H5.25391C5.19531 20.5 5.13672 20.4961 5.07812 20.4922C5.03125 20.4961 4.98438 20.5 4.9375 20.5H4.3125C3.44922 20.5 2.75 19.8008 2.75 18.9375V14.5625C2.75 14.5273 2.75 14.4883 2.75391 14.4531V11.7344H1.5C0.796875 11.7344 0.25 11.1875 0.25 10.4805C0.25 10.1289 0.367188 9.81641 0.640625 9.54297L10.6562 0.8125C10.9297 0.539062 11.2422 0.5 11.5156 0.5C11.7891 0.5 12.1016 0.578125 12.3359 0.773438L22.3125 9.54297C22.625 9.81641 22.7812 10.1289 22.7422 10.4805Z" fill="#AEAEAE"/>
</g>
</g>
<defs>
<clipPath id="clip0_12_399">
<rect width="22.5" height="20" fill="white" transform="translate(0.25 0.5)"/>
</clipPath>
<clipPath id="clip1_12_399">
<path d="M0.25 0.5H22.75V20.5H0.25V0.5Z" fill="white"/>
</clipPath>
</defs>
</svg>
