<svg width="23" height="23" viewBox="0 0 23 23" fill="none" xmlns="http://www.w3.org/2000/svg">
<g clip-path="url(#clip0_42_1384)">
<g clip-path="url(#clip1_42_1384)">
<path d="M22.2022 9.54804L19.8422 7.28398C19.5939 7.04573 19.1911 7.04573 18.9428 7.28398C18.6944 7.52222 18.6944 7.90857 18.9428 8.14685L20.2171 9.36935H17.3431V2.11015C17.3431 1.77318 17.0583 1.5 16.707 1.5H4.28065C4.28002 1.5 4.27951 1.50008 4.27887 1.50008C4.16872 1.50037 4.05865 1.52803 3.96024 1.58314C3.76482 1.69244 3.64465 1.8931 3.64465 2.11015V17.8488C3.64465 18.0687 3.768 18.2716 3.96749 18.3799L11.0937 22.2474C11.191 22.3001 11.2989 22.3264 11.4069 22.3264C11.5176 22.3264 11.6284 22.2987 11.7273 22.2433C11.9228 22.134 12.0429 21.9333 12.0429 21.7163V18.4589H16.707C17.0582 18.4589 17.343 18.1857 17.343 17.8488V10.5896H20.217L18.9427 11.8121C18.6943 12.0503 18.6943 12.4367 18.9427 12.675C19.0669 12.7941 19.2297 12.8537 19.3924 12.8537C19.5551 12.8537 19.718 12.7941 19.8421 12.675L22.2021 10.4109C22.4506 10.1726 22.4506 9.78628 22.2022 9.54804ZM10.7709 20.6701L4.91665 17.493V3.15635L10.7709 6.33348V20.6701ZM16.071 17.2386H12.0429V5.97764C12.0429 5.75775 11.9196 5.55485 11.7201 5.44657L6.69661 2.7203H16.071V9.36931H14.587C14.2358 9.36931 13.951 9.64249 13.951 9.97945C13.951 10.3164 14.2358 10.5896 14.587 10.5896H16.071V17.2386Z" fill="#E64B23"/>
</g>
</g>
<defs>
<clipPath id="clip0_42_1384">
<rect width="22.9091" height="22" fill="white" transform="translate(0 0.5)"/>
</clipPath>
<clipPath id="clip1_42_1384">
<rect width="20.8264" height="20.8264" fill="white" transform="translate(2.60327 1.5)"/>
</clipPath>
</defs>
</svg>
