<svg width="20" height="21" viewBox="0 0 20 21" fill="none" xmlns="http://www.w3.org/2000/svg">
<g clip-path="url(#clip0_42_1358)">
<path d="M10 0.5C4.47301 0.5 0 4.9725 0 10.5C0 16.0269 4.4725 20.5 10 20.5C15.527 20.5 20 16.0275 20 10.5C20 4.97301 15.5275 0.5 10 0.5ZM10 19.1046C5.25539 19.1046 1.39535 15.2446 1.39535 10.5C1.39535 5.75535 5.25539 1.89535 10 1.89535C14.7446 1.89535 18.6046 5.75535 18.6046 10.5C18.6046 15.2446 14.7446 19.1046 10 19.1046Z" fill="#353B43"/>
<path d="M9.70413 13.1533C9.15127 13.1533 8.70374 13.614 8.70374 14.1668C8.70374 14.7066 9.13811 15.1804 9.70413 15.1804C10.2701 15.1804 10.7176 14.7066 10.7176 14.1668C10.7176 13.614 10.2569 13.1533 9.70413 13.1533Z" fill="#353B43"/>
<path d="M9.87523 5.47949C8.0982 5.47949 7.2821 6.53258 7.2821 7.24336C7.2821 7.75672 7.71648 7.99367 8.07187 7.99367C8.78269 7.99367 8.49312 6.98008 9.83574 6.98008C10.4939 6.98008 11.0204 7.26969 11.0204 7.8752C11.0204 8.58598 10.2833 8.99402 9.8489 9.36258C9.46714 9.6916 8.96699 10.2313 8.96699 11.3634C8.96699 12.0478 9.15128 12.2453 9.69093 12.2453C10.3359 12.2453 10.4675 11.9557 10.4675 11.7055C10.4675 11.0211 10.4807 10.6262 11.2047 10.0602C11.5601 9.78379 12.6789 8.88867 12.6789 7.65137C12.6789 6.41406 11.5601 5.47949 9.87523 5.47949Z" fill="#353B43"/>
</g>
<defs>
<clipPath id="clip0_42_1358">
<rect width="20" height="20" fill="white" transform="translate(0 0.5)"/>
</clipPath>
</defs>
</svg>
