<svg width="21" height="21" viewBox="0 0 21 21" fill="none" xmlns="http://www.w3.org/2000/svg">
<g clip-path="url(#clip0_12_411)">
<g clip-path="url(#clip1_12_411)">
<g clip-path="url(#clip2_12_411)">
<path d="M17.0487 0.0986328H4.32142C4.10358 0.101141 3.89389 0.181787 3.73051 0.325889C4.37882 0.553964 4.94922 0.961077 5.3756 1.50004C5.80197 2.03901 6.06688 2.68777 6.1396 3.37112C6.1535 3.49192 6.1535 3.61392 6.1396 3.73473V19.1881C6.13917 19.362 6.18862 19.5323 6.28207 19.679C6.37553 19.8256 6.50908 19.9423 6.66688 20.0153C6.82505 20.0881 7.0008 20.114 7.17324 20.0898C7.34568 20.0657 7.50755 19.9925 7.6396 19.879L10.2305 17.661L12.8214 19.879C12.9861 20.0198 13.1956 20.0972 13.4123 20.0972C13.629 20.0972 13.8386 20.0198 14.0032 19.879L16.5941 17.661L19.1851 19.879C19.3497 20.0198 19.5593 20.0972 19.776 20.0971C19.9075 20.0962 20.0374 20.0684 20.1578 20.0153C20.3156 19.9423 20.4491 19.8256 20.5426 19.679C20.636 19.5323 20.6855 19.362 20.6851 19.1881V3.73473C20.6851 2.77037 20.3019 1.84552 19.62 1.16362C18.938 0.48172 18.0131 0.0986328 17.0487 0.0986328ZM16.1396 12.825H10.6851C10.444 12.825 10.2127 12.7292 10.0422 12.5587C9.87175 12.3882 9.77597 12.157 9.77597 11.9159C9.77597 11.6748 9.87175 11.4436 10.0422 11.2732C10.2127 11.1027 10.444 11.0069 10.6851 11.0069H16.1396C16.3807 11.0069 16.6119 11.1027 16.7824 11.2732C16.9529 11.4436 17.0487 11.6748 17.0487 11.9159C17.0487 12.157 16.9529 12.3882 16.7824 12.5587C16.6119 12.7292 16.3807 12.825 16.1396 12.825ZM16.1396 9.18887H10.6851C10.444 9.18887 10.2127 9.0931 10.0422 8.92262C9.87175 8.75215 9.77597 8.52093 9.77597 8.27984C9.77597 8.03876 9.87175 7.80754 10.0422 7.63707C10.2127 7.46659 10.444 7.37082 10.6851 7.37082H16.1396C16.3807 7.37082 16.6119 7.46659 16.7824 7.63707C16.9529 7.80754 17.0487 8.03876 17.0487 8.27984C17.0487 8.52093 16.9529 8.75215 16.7824 8.92262C16.6119 9.0931 16.3807 9.18887 16.1396 9.18887ZM16.1396 5.55277H10.6851C10.444 5.55277 10.2127 5.457 10.0422 5.28653C9.87175 5.11605 9.77597 4.88484 9.77597 4.64375C9.77597 4.40266 9.87175 4.17145 10.0422 4.00097C10.2127 3.8305 10.444 3.73473 10.6851 3.73473H16.1396C16.3807 3.73473 16.6119 3.8305 16.7824 4.00097C16.9529 4.17145 17.0487 4.40266 17.0487 4.64375C17.0487 4.88484 16.9529 5.11605 16.7824 5.28653C16.6119 5.457 16.3807 5.55277 16.1396 5.55277ZM4.32142 3.73473V11.0069H1.59415C1.35304 11.0069 1.12181 10.9111 0.951325 10.7407C0.780837 10.5702 0.685059 10.339 0.685059 10.0979V3.73473C0.685059 3.60746 0.685059 3.48929 0.685059 3.37112C0.73328 2.88894 0.971084 2.44567 1.34616 2.13881C1.72123 1.83196 2.20285 1.68666 2.68506 1.73487C3.16727 1.78309 3.61058 2.02088 3.91745 2.39592C4.22433 2.77097 4.36964 3.25255 4.32142 3.73473Z" fill="#AEAEAE"/>
</g>
</g>
</g>
<defs>
<clipPath id="clip0_12_411">
<rect width="20" height="20" fill="white" transform="translate(0.5 0.5)"/>
</clipPath>
<clipPath id="clip1_12_411">
<rect width="20" height="20" fill="white" transform="translate(0.5 0.5)"/>
</clipPath>
<clipPath id="clip2_12_411">
<rect width="20" height="20" fill="white" transform="translate(0.685059 0.0986328)"/>
</clipPath>
</defs>
</svg>
