<svg width="23" height="23" viewBox="0 0 23 23" fill="none" xmlns="http://www.w3.org/2000/svg">
<path d="M13.3068 20.125H6.18384C4.99481 20.125 4.02759 19.1578 4.02759 17.9688V5.03125C4.02759 3.84222 4.99481 2.875 6.18384 2.875H16.2463C17.4354 2.875 18.4026 3.84222 18.4026 5.03125V15.3092C18.4026 15.5014 18.4803 15.6738 18.6029 15.8027C18.7338 15.9402 18.9162 16.028 19.1213 16.028C19.5186 16.028 19.8401 15.7065 19.8401 15.3092V5.03125C19.8401 3.04977 18.2278 1.4375 16.2463 1.4375H6.18384C4.20236 1.4375 2.59009 3.04977 2.59009 5.03125V17.9688C2.59009 19.9502 4.20236 21.5625 6.18384 21.5625H13.3068C13.704 21.5625 14.0255 21.241 14.0255 20.8438C14.0255 20.6515 13.9478 20.4791 13.8251 20.3502C13.6942 20.2127 13.5118 20.125 13.3068 20.125Z" fill="#353B43"/>
<path d="M15.5276 10.7812H6.90259C6.50531 10.7812 6.18384 11.1031 6.18384 11.5C6.18384 11.8969 6.50531 12.2188 6.90259 12.2188H15.5276C15.9249 12.2188 16.2463 11.8969 16.2463 11.5C16.2463 11.1031 15.9249 10.7812 15.5276 10.7812Z" fill="#353B43"/>
<path d="M15.5276 7.1875H6.90259C6.50531 7.1875 6.18384 7.50932 6.18384 7.90625C6.18384 8.30318 6.50531 8.625 6.90259 8.625H15.5276C15.9249 8.625 16.2463 8.30318 16.2463 7.90625C16.2463 7.50932 15.9249 7.1875 15.5276 7.1875Z" fill="#353B43"/>
<path d="M15.5276 14.375H6.90259C6.50531 14.375 6.18384 14.6965 6.18384 15.0938C6.18384 15.491 6.50531 15.8125 6.90259 15.8125H15.5276C15.9249 15.8125 16.2463 15.491 16.2463 15.0938C16.2463 14.6965 15.9249 14.375 15.5276 14.375Z" fill="#353B43"/>
<path d="M15.1675 18.7222C15.0177 18.8719 14.9539 19.0704 14.9639 19.2665C14.9727 19.4379 15.0365 19.6075 15.1675 19.7385L16.6239 21.1943C16.7643 21.3347 16.9482 21.4048 17.1321 21.4048C17.316 21.4048 17.4999 21.3347 17.6403 21.1943L20.1994 18.6351C20.4802 18.3544 20.4802 17.8995 20.1994 17.6188C19.9186 17.338 19.4638 17.338 19.1831 17.6188L17.1321 19.6697L16.1838 18.7222C16.061 18.5993 15.9035 18.5401 15.7432 18.5248C15.5371 18.505 15.3254 18.5642 15.1675 18.7222Z" fill="#353B43"/>
</svg>
