<svg width="19" height="20" viewBox="0 0 19 20" fill="none" xmlns="http://www.w3.org/2000/svg">
<g clip-path="url(#clip0_12_425)">
<g clip-path="url(#clip1_12_425)">
<path d="M9.5 10C10.8261 10 12.0979 9.47322 13.0355 8.53553C13.9732 7.59785 14.5 6.32608 14.5 5C14.5 3.67392 13.9732 2.40215 13.0355 1.46447C12.0979 0.526784 10.8261 0 9.5 0C8.17392 0 6.90215 0.526784 5.96447 1.46447C5.02678 2.40215 4.5 3.67392 4.5 5C4.5 6.32608 5.02678 7.59785 5.96447 8.53553C6.90215 9.47322 8.17392 10 9.5 10ZM7.71484 11.875C3.86719 11.875 0.75 14.9922 0.75 18.8398C0.75 19.4805 1.26953 20 1.91016 20H17.0898C17.7305 20 18.25 19.4805 18.25 18.8398C18.25 14.9922 15.1328 11.875 11.2852 11.875H7.71484Z" fill="#AEAEAE"/>
</g>
</g>
<defs>
<clipPath id="clip0_12_425">
<rect width="17.5" height="20" fill="white" transform="translate(0.75)"/>
</clipPath>
<clipPath id="clip1_12_425">
<path d="M0.75 0H18.25V20H0.75V0Z" fill="white"/>
</clipPath>
</defs>
</svg>
