<svg width="21" height="21" viewBox="0 0 21 21" fill="none" xmlns="http://www.w3.org/2000/svg">
<g clip-path="url(#clip0_12_404)">
<path d="M17.1549 1.43066H16.4571V2.82637C16.4571 3.31992 16.261 3.79326 15.912 4.14226C15.563 4.49125 15.0897 4.68731 14.5961 4.68731H6.68712C6.19357 4.68731 5.72023 4.49125 5.37123 4.14226C5.02224 3.79326 4.82618 3.31992 4.82618 2.82637V1.43066H4.12832C3.69722 1.43311 3.28447 1.60545 2.97962 1.91029C2.67478 2.21513 2.50244 2.62788 2.5 3.05899V18.877C2.50244 19.3081 2.67478 19.7209 2.97962 20.0257C3.28447 20.3305 3.69722 20.5029 4.12832 20.5053H17.1549C17.586 20.5029 17.9988 20.3305 18.3036 20.0257C18.6085 19.7209 18.7808 19.3081 18.7832 18.877V3.05899C18.7808 2.62788 18.6085 2.21513 18.3036 1.91029C17.9988 1.60545 17.586 1.43311 17.1549 1.43066ZM13.9448 10.7354L10.4555 14.4573C10.32 14.5935 10.136 14.6705 9.94377 14.6713C9.77191 14.6733 9.60566 14.6101 9.47853 14.4945L7.38497 12.6335C7.31565 12.574 7.25905 12.5011 7.21855 12.4192C7.17806 12.3373 7.1545 12.2481 7.14928 12.1569C7.14407 12.0657 7.15731 11.9744 7.18822 11.8884C7.21912 11.8024 7.26705 11.7236 7.32914 11.6565C7.44325 11.5093 7.61084 11.413 7.79551 11.3886C7.98019 11.3642 8.16703 11.4137 8.31544 11.5263L9.89724 12.9406L12.9213 9.73046C13.0521 9.59978 13.2295 9.52637 13.4144 9.52637C13.5994 9.52637 13.7767 9.59978 13.9076 9.73046C14.0351 9.85519 14.11 10.024 14.1169 10.2022C14.1238 10.3805 14.0622 10.5546 13.9448 10.6888V10.7354Z" fill="#36322F"/>
<path d="M14.3634 0.5H6.91968C6.27732 0.5 5.75659 1.02073 5.75659 1.66309V2.59356C5.75659 3.23592 6.27732 3.75665 6.91968 3.75665H14.3634C15.0058 3.75665 15.5265 3.23592 15.5265 2.59356V1.66309C15.5265 1.02073 15.0058 0.5 14.3634 0.5Z" fill="#36322F"/>
</g>
<defs>
<clipPath id="clip0_12_404">
<rect width="20" height="20" fill="white" transform="translate(0.5 0.5)"/>
</clipPath>
</defs>
</svg>
