<svg width="21" height="21" viewBox="0 0 21 21" fill="none" xmlns="http://www.w3.org/2000/svg">
<path d="M9.76758 0.900391C12.7231 0.900655 15.127 3.30517 15.127 6.26074C15.1267 9.21609 12.7229 11.6199 9.76758 11.6201C6.81201 11.6201 4.40749 9.21625 4.40723 6.26074C4.40723 3.30501 6.81185 0.900391 9.76758 0.900391ZM9.76758 2.26855C7.56686 2.26855 5.77539 4.06002 5.77539 6.26074C5.77566 8.46124 7.56702 10.252 9.76758 10.252C11.9679 10.2517 13.7585 8.46108 13.7588 6.26074C13.7588 4.06019 11.9681 2.26882 9.76758 2.26855Z" fill="#353B43" stroke="#353B43" stroke-width="0.2"/>
<path d="M11.0664 12.9004C12.9417 12.9004 14.7091 13.6231 16.042 14.9355C17.3683 16.2416 18.0995 17.9668 18.0996 19.793C18.0996 20.1367 17.8136 20.4101 17.4668 20.4102H2.5332C2.1864 20.4101 1.90039 20.1367 1.90039 19.793C1.90048 17.9668 2.63174 16.2416 3.95801 14.9355C5.29089 13.6231 7.05831 12.9004 8.93359 12.9004H11.0664ZM8.93359 14.1348C6.3056 14.1348 4.08344 15.8682 3.39062 18.2295C3.24792 18.716 3.64908 19.1758 4.18555 19.1758H15.8145C16.3509 19.1758 16.7521 18.716 16.6094 18.2295C15.9166 15.8682 13.6944 14.1348 11.0664 14.1348H8.93359Z" fill="#353B43" stroke="#353B43" stroke-width="0.2"/>
</svg>
